HIERARCHY
ROOT hip
{
	OFFSET 0.000000 0.000000 0.000000 
	CHANNELS 6 Xposition Yposition Zposition Xrotation Zrotation Yrotation
	JOINT abdomen
	{
		OFFSET 0.000000 3.402643 0.000000 
		CHANNELS 3 Xrotation Zrotation Yrotation
		JOINT chest
		{
			OFFSET 0.000000 8.438565 -0.680529 
			CHANNELS 3 Xrotation Zrotation Yrotation
			JOINT neck
			{
				OFFSET 0.000000 10.207942 -0.272212 
				CHANNELS 3 Xrotation Zrotation Yrotation
				JOINT head
				{
					OFFSET 0.000000 3.130431 0.000000 
					CHANNELS 3 Xrotation Zrotation Yrotation
					End Site
					{
						OFFSET 0.000000 3.130435 0.000000 
					}
				}
			}
			JOINT lCollar
			{
				OFFSET 3.470700 6.669187 -0.816635 
				CHANNELS 3 Yrotation Zrotation Xrotation
				JOINT lShldr
				{
					OFFSET 3.198488 0.000000 0.000000 
					CHANNELS 3 Zrotation Yrotation Xrotation
					JOINT lForeArm
					{
						OFFSET 10.139888 0.000000 0.000000 
						CHANNELS 3 Yrotation Zrotation Xrotation
						JOINT lHand
						{
							OFFSET 8.370511 0.000000 0.000000 
							CHANNELS 3 Zrotation Yrotation Xrotation
							End Site
							{
								OFFSET 4.083176 0.000000 0.000000 
							}
						}
					}
				}
			}
			JOINT rCollar
			{
				OFFSET -3.470700 6.669187 -0.816635 
				CHANNELS 3 Yrotation Zrotation Xrotation
				JOINT rShldr
				{
					OFFSET -3.198488 0.000000 0.000000 
					CHANNELS 3 Zrotation Yrotation Xrotation
					JOINT rForeArm
					{
						OFFSET -10.139888 0.000000 0.000000 
						CHANNELS 3 Yrotation Zrotation Xrotation
						JOINT rHand
						{
							OFFSET -8.370511 0.000000 0.000000 
							CHANNELS 3 Zrotation Yrotation Xrotation
							End Site
							{
								OFFSET -4.083176 0.000000 0.000000 
							}
						}
					}
				}
			}
		}
	}
	JOINT lThigh
	{
		OFFSET 5.308129 -1.633274 1.361059 
		CHANNELS 3 Xrotation Zrotation Yrotation
		JOINT lShin
		{
			OFFSET -2.041588 -20.007561 0.000000 
			CHANNELS 3 Xrotation Zrotation Yrotation
			JOINT lFoot
			{
				OFFSET 0.000000 -19.190928 -1.224953 
				CHANNELS 3 Xrotation Yrotation Zrotation
				End Site
				{
					OFFSET 0.000000 -2.449906 4.627600 
				}
			}
		}
	}
	JOINT rThigh
	{
		OFFSET -5.308129 -1.633274 1.361059 
		CHANNELS 3 Xrotation Zrotation Yrotation
		JOINT rShin
		{
			OFFSET 2.041588 -20.007561 0.000000 
			CHANNELS 3 Xrotation Zrotation Yrotation
			JOINT rFoot
			{
				OFFSET 0.000000 -19.190928 -1.224953 
				CHANNELS 3 Xrotation Yrotation Zrotation
				End Site
				{
					OFFSET 0.000000 -2.449906 4.627600 
				}
			}
		}
	}
}
MOTION
Frames: 8
Frame Time: 0.033333
-11.124144 47.621441 -15.230198 2.043731 6.333893 -56.472874 0.000000 0.000000 0.000000 24.681150 0.922860 1.371442 28.709398 4.075650 13.137897 -7.002751 -16.087708 16.330103 11.856384 -5.927063 25.000000 -56.128887 -28.683882 7.778244 -80.575119 1.414209 3.334800 6.777786 -11.870614 30.668457 -7.742155 2.741303 25.000000 30.881178 43.730232 7.335613 40.283901 19.811506 3.947362 24.464495 -8.629640 35.241283 -23.782009 10.101813 15.680093 56.671303 -10.453350 -31.414015 -1.571557 -0.152834 10.498213 -24.391336 -16.101250 -3.872896 30.221596 3.065631 -9.750174 -8.908615 -0.859257 10.924707 
-11.851126 47.642326 -15.501137 3.094761 6.279964 -52.912994 0.000000 0.000000 0.000000 24.424810 0.497935 1.485971 27.594664 4.011698 13.044878 -5.693110 -15.306292 15.701495 11.200423 -6.519692 25.000000 -56.766750 -27.752584 6.508706 -81.398994 1.679678 3.322801 9.262944 -12.908920 30.797886 -5.451483 2.063905 25.000000 36.866543 43.304592 7.732090 36.208832 19.172153 3.854380 21.999960 -13.933386 44.698536 -24.661518 12.708082 18.245995 57.964981 -11.227602 -26.175762 -1.235882 -0.111465 9.340091 -23.853302 -15.485396 -4.482469 30.466776 2.929130 -12.864828 -9.388799 -0.969688 11.629751 
-12.252300 48.018597 -15.586837 4.165451 6.253102 -49.515724 0.000000 0.000000 0.000000 24.619698 0.372871 1.518584 27.495138 3.934415 12.997261 -6.281190 -14.584643 15.498514 11.697590 -6.868840 25.000000 -56.820526 -28.595694 6.223736 -80.265839 1.544120 3.317930 12.033500 -13.599005 30.315607 -5.629413 1.994440 25.000000 40.737743 44.304596 6.742920 34.609116 17.166470 3.703175 17.160618 -13.844938 41.796906 -24.752712 13.883086 19.153343 55.337097 -11.889097 -14.537130 -3.006891 -0.223889 7.998322 -20.932364 -15.190988 -5.511199 27.264767 3.076003 -14.660675 -9.023829 -0.975686 12.206870 
-12.724904 48.153507 -15.474837 5.785685 6.179544 -46.024921 0.000000 0.000000 0.000000 24.131241 0.311928 1.077287 26.917778 3.752079 12.413734 -6.785485 -13.690760 15.307320 11.494014 -7.629686 25.000000 -55.825462 -26.997362 5.671900 -79.106644 1.352510 3.302664 14.639971 -13.149056 29.836548 -7.121269 2.190271 25.000000 44.016861 44.825729 8.186765 36.570904 15.145697 3.605720 7.764831 -8.993336 36.609169 -25.209555 15.413463 19.035006 52.312023 -12.267981 -0.917880 -6.090323 -0.120005 2.729125 -19.556973 -14.713660 -5.967618 25.337111 3.337517 -18.249247 -8.424081 -0.987653 13.147515 
-12.986593 48.280983 -15.229318 6.818502 6.283727 -42.442719 0.000000 0.000000 0.000000 23.818420 0.125074 0.299374 26.205812 3.297811 11.586834 -6.918751 -12.803668 15.259406 11.003589 -8.756070 25.000000 -54.293636 -25.914557 4.849727 -76.509552 0.873252 3.290500 16.325445 -11.939114 29.866594 -7.677967 1.221636 25.000000 46.748787 44.755943 9.452269 39.510895 13.078768 3.518389 4.941746 -4.536210 26.208586 -22.172033 14.972875 18.658484 43.126289 -12.998888 12.459748 -12.304982 0.380262 -3.476627 -17.818541 -15.103551 -6.744448 22.912144 3.042466 -20.391422 -7.469097 -0.944829 14.362305 
-13.072734 48.429729 -14.960264 8.348646 6.116632 -40.031788 0.000000 0.000000 0.000000 23.574242 0.080556 0.376961 25.284655 3.433559 10.989769 -7.002516 -13.771397 15.102771 11.109496 -9.054638 25.000000 -53.302544 -26.293020 4.343660 -72.090813 0.099949 3.252264 17.337755 -9.836936 28.293953 -7.828623 1.352649 25.000000 45.269127 44.649807 9.423972 43.949661 11.750859 3.499839 0.620341 -0.261786 20.685558 -17.215183 13.796255 19.380884 27.704834 -13.905718 34.206348 -15.562903 0.870467 -6.333395 -15.970901 -14.583415 -6.983248 19.662260 3.238519 -22.661528 -6.336445 -0.847886 14.891942 
-13.156519 48.329308 -14.561972 10.237388 5.737886 -38.515671 0.000000 0.000000 0.000000 23.017580 -0.026964 1.189712 24.480114 3.603584 11.458318 -7.108373 -14.132854 14.640118 12.130697 -8.621469 25.000000 -53.300911 -27.485649 5.067859 -66.808083 -0.903741 3.217695 16.943298 -6.066544 25.165264 -7.633358 1.886031 25.000000 40.798206 45.246414 7.931393 46.782486 12.560756 3.591625 -3.134912 3.110610 21.240316 -20.268402 16.788395 19.779903 29.320345 -13.463665 46.992119 -12.194530 1.079354 -9.868427 -16.077995 -13.372880 -6.256029 18.873922 2.917982 -24.865889 -6.012676 -0.855720 15.884935 
-12.850041 48.194279 -13.970510 10.716421 5.633094 -35.976189 0.000000 0.000000 0.000000 23.203133 -0.044879 0.928020 24.522768 3.792424 10.810833 -6.931001 -14.050081 14.542524 11.014488 -8.572502 25.000000 -52.005890 -29.337950 4.760697 -61.659744 -2.059316 3.205444 17.253515 -1.568037 18.920847 -7.571564 1.525225 25.000000 35.719833 46.082306 5.993129 49.115993 12.634769 3.634955 -7.046248 5.775013 23.822239 -20.592360 16.410534 20.250000 30.343723 -14.379024 46.963764 -13.779819 1.214127 -9.902538 -14.664703 -14.595363 -8.180223 18.361431 3.109333 -26.461849 -5.670199 -0.867064 17.191780 
